<svg width="73" height="36" viewBox="0 0 73 36" fill="none" xmlns="http://www.w3.org/2000/svg">
<path fill-rule="evenodd" clip-rule="evenodd" d="M72.2399 11.5724L60.6668 0L16.068 1.86502e-06L0 27.7902L8.0849 36H58.1099L72.2399 11.5724ZM62.3283 12.8565L57.4244 7.87417L44.0596 7.86977L36.6706 20.668V7.87417H32.3144V7.87924L32.298 7.86977L25.006 20.4999V7.87417H20.6499V7.87924L20.6335 7.86977L8.93608 28.1303H13.9661L20.6499 16.5537V28.1303H25.6307L32.3144 16.5537V28.1303H37.3923L46.5721 12.2303L55.872 12.2303L57.0054 13.3638L50.995 23.7742H44.7403L42.2137 28.1303H53.51L62.3283 12.8565Z" fill="#FF6B00"/>
</svg>
